solid OpenSCAD_Model
  facet normal -1 0 0
    outer loop
      vertex 0 0 -1.5
      vertex 0 0 11.5
      vertex 0 1.5 -1.5
    endloop
  endfacet
  facet normal -1 0 0
    outer loop
      vertex 0 1.5 10
      vertex 0 0 11.5
      vertex 0 1.5 11.5
    endloop
  endfacet
  facet normal -1 0 0
    outer loop
      vertex 0 1.5 0
      vertex 0 0 11.5
      vertex 0 1.5 10
    endloop
  endfacet
  facet normal -1 0 0
    outer loop
      vertex 0 1.5 -1.5
      vertex 0 0 11.5
      vertex 0 1.5 0
    endloop
  endfacet
  facet normal 0 -1 0
    outer loop
      vertex 0 0 11.5
      vertex 0 0 -1.5
      vertex 40 0 -1.5
    endloop
  endfacet
  facet normal 0 -1 0
    outer loop
      vertex 40 0 11.5
      vertex 0 0 11.5
      vertex 40 0 -1.5
    endloop
  endfacet
  facet normal 0 0 -1
    outer loop
      vertex 0 0 -1.5
      vertex 0 1.5 -1.5
      vertex 40 0 -1.5
    endloop
  endfacet
  facet normal 0 0 -1
    outer loop
      vertex 40 0 -1.5
      vertex 0 1.5 -1.5
      vertex 2 3.5 -1.5
    endloop
  endfacet
  facet normal 0 0 -1
    outer loop
      vertex 40 0 -1.5
      vertex 2 3.5 -1.5
      vertex 38 3.5 -1.5
    endloop
  endfacet
  facet normal 0 0 -1
    outer loop
      vertex 40 0 -1.5
      vertex 38 3.5 -1.5
      vertex 40 1.5 -1.5
    endloop
  endfacet
  facet normal -0.707107 0.707107 0
    outer loop
      vertex 2 3.5 0
      vertex 2 3.5 -1.5
      vertex 0 1.5 0
    endloop
  endfacet
  facet normal -0.707107 0.707107 0
    outer loop
      vertex 0 1.5 0
      vertex 2 3.5 -1.5
      vertex 0 1.5 -1.5
    endloop
  endfacet
  facet normal 0 0 1
    outer loop
      vertex 5 1.5 0
      vertex 5 3.5 0
      vertex 2 3.5 0
    endloop
  endfacet
  facet normal 0 0 1
    outer loop
      vertex 0 1.5 0
      vertex 5 1.5 0
      vertex 2 3.5 0
    endloop
  endfacet
  facet normal 0 1 0
    outer loop
      vertex 0 1.5 0
      vertex 0 1.5 10
      vertex 5 1.5 0
    endloop
  endfacet
  facet normal 0 1 0
    outer loop
      vertex 5 1.5 0
      vertex 0 1.5 10
      vertex 5 1.5 10
    endloop
  endfacet
  facet normal 0 0 -1
    outer loop
      vertex 5 3.5 10
      vertex 5 1.5 10
      vertex 2 3.5 10
    endloop
  endfacet
  facet normal 0 0 -1
    outer loop
      vertex 2 3.5 10
      vertex 5 1.5 10
      vertex 0 1.5 10
    endloop
  endfacet
  facet normal -0.707107 0.707107 0
    outer loop
      vertex 2 3.5 11.5
      vertex 2 3.5 10
      vertex 0 1.5 11.5
    endloop
  endfacet
  facet normal -0.707107 0.707107 0
    outer loop
      vertex 0 1.5 11.5
      vertex 2 3.5 10
      vertex 0 1.5 10
    endloop
  endfacet
  facet normal 0 0 1
    outer loop
      vertex 0 1.5 11.5
      vertex 0 0 11.5
      vertex 40 0 11.5
    endloop
  endfacet
  facet normal 0 0 1
    outer loop
      vertex 38 3.5 11.5
      vertex 0 1.5 11.5
      vertex 40 1.5 11.5
    endloop
  endfacet
  facet normal 0 0 1
    outer loop
      vertex 40 1.5 11.5
      vertex 0 1.5 11.5
      vertex 40 0 11.5
    endloop
  endfacet
  facet normal 0 0 1
    outer loop
      vertex 2 3.5 11.5
      vertex 0 1.5 11.5
      vertex 38 3.5 11.5
    endloop
  endfacet
  facet normal 1 0 0
    outer loop
      vertex 40 0 11.5
      vertex 40 0 -1.5
      vertex 40 1.5 -1.5
    endloop
  endfacet
  facet normal 1 0 0
    outer loop
      vertex 40 1.5 10
      vertex 40 0 11.5
      vertex 40 1.5 0
    endloop
  endfacet
  facet normal 1 0 0
    outer loop
      vertex 40 1.5 0
      vertex 40 0 11.5
      vertex 40 1.5 -1.5
    endloop
  endfacet
  facet normal 1 0 0
    outer loop
      vertex 40 1.5 11.5
      vertex 40 0 11.5
      vertex 40 1.5 10
    endloop
  endfacet
  facet normal 0.707107 0.707107 0
    outer loop
      vertex 40 1.5 0
      vertex 40 1.5 -1.5
      vertex 38 3.5 0
    endloop
  endfacet
  facet normal 0.707107 0.707107 0
    outer loop
      vertex 38 3.5 0
      vertex 40 1.5 -1.5
      vertex 38 3.5 -1.5
    endloop
  endfacet
  facet normal 0 1 0
    outer loop
      vertex 2 3.5 -1.5
      vertex 2 3.5 0
      vertex 38 3.5 -1.5
    endloop
  endfacet
  facet normal 0 1 0
    outer loop
      vertex 38 3.5 -1.5
      vertex 2 3.5 0
      vertex 5 3.5 0
    endloop
  endfacet
  facet normal 0 1 0
    outer loop
      vertex 38 3.5 -1.5
      vertex 5 3.5 0
      vertex 6.5 3.5 0
    endloop
  endfacet
  facet normal 0 1 0
    outer loop
      vertex 38 3.5 -1.5
      vertex 6.5 3.5 0
      vertex 35 3.5 0
    endloop
  endfacet
  facet normal 0 1 0
    outer loop
      vertex 38 3.5 -1.5
      vertex 35 3.5 0
      vertex 36.5 3.5 0
    endloop
  endfacet
  facet normal 0 1 0
    outer loop
      vertex 38 3.5 -1.5
      vertex 36.5 3.5 0
      vertex 38 3.5 0
    endloop
  endfacet
  facet normal -1 0 0
    outer loop
      vertex 5 1.5 0
      vertex 5 1.5 10
      vertex 5 3.5 0
    endloop
  endfacet
  facet normal -1 0 0
    outer loop
      vertex 5 3.5 0
      vertex 5 1.5 10
      vertex 5 3.5 10
    endloop
  endfacet
  facet normal -1 0 0
    outer loop
      vertex 5 3.5 0
      vertex 5 3.5 10
      vertex 5 20 10
    endloop
  endfacet
  facet normal -1 0 0
    outer loop
      vertex 5 3.5 0
      vertex 5 20 10
      vertex 5 20 9.14214
    endloop
  endfacet
  facet normal -1 0 0
    outer loop
      vertex 5 3.5 0
      vertex 5 20 9.14214
      vertex 5 15.4289 4.57107
    endloop
  endfacet
  facet normal -1 0 0
    outer loop
      vertex 5 11 0
      vertex 5 15.4289 4.57107
      vertex 5 20 0
    endloop
  endfacet
  facet normal -1 0 0
    outer loop
      vertex 5 3.5 0
      vertex 5 15.4289 4.57107
      vertex 5 7.5 0
    endloop
  endfacet
  facet normal -1 0 0
    outer loop
      vertex 5 11 0
      vertex 5 11 -1.5
      vertex 5 7.5 0
    endloop
  endfacet
  facet normal -1 0 0
    outer loop
      vertex 5 11 0
      vertex 5 7.5 0
      vertex 5 15.4289 4.57107
    endloop
  endfacet
  facet normal -1 0 0
    outer loop
      vertex 5 7.5 0
      vertex 5 11 -1.5
      vertex 5 7.5 -1.5
    endloop
  endfacet
  facet normal 0 0 -1
    outer loop
      vertex 5 3.5 0
      vertex 5 7.5 0
      vertex 6.5 3.5 0
    endloop
  endfacet
  facet normal 0 0 -1
    outer loop
      vertex 6.5 3.5 0
      vertex 5 7.5 0
      vertex 6.5 7.5 0
    endloop
  endfacet
  facet normal 0 1 0
    outer loop
      vertex 2 3.5 10
      vertex 2 3.5 11.5
      vertex 5 3.5 10
    endloop
  endfacet
  facet normal 0 1 0
    outer loop
      vertex 5 3.5 10
      vertex 2 3.5 11.5
      vertex 38 3.5 11.5
    endloop
  endfacet
  facet normal 0 1 0
    outer loop
      vertex 36.5 3.5 10
      vertex 38 3.5 11.5
      vertex 38 3.5 10
    endloop
  endfacet
  facet normal 0 1 0
    outer loop
      vertex 35 3.5 10
      vertex 38 3.5 11.5
      vertex 36.5 3.5 10
    endloop
  endfacet
  facet normal 0 1 0
    outer loop
      vertex 6.5 3.5 10
      vertex 38 3.5 11.5
      vertex 35 3.5 10
    endloop
  endfacet
  facet normal 0 1 0
    outer loop
      vertex 5 3.5 10
      vertex 38 3.5 11.5
      vertex 6.5 3.5 10
    endloop
  endfacet
  facet normal 0 0 1
    outer loop
      vertex 5 20 10
      vertex 5 3.5 10
      vertex 6.5 3.5 10
    endloop
  endfacet
  facet normal 0 0 1
    outer loop
      vertex 6.5 10 10
      vertex 5 20 10
      vertex 6.5 8.5 10
    endloop
  endfacet
  facet normal 0 0 1
    outer loop
      vertex 6.5 8.5 10
      vertex 5 20 10
      vertex 6.5 3.5 10
    endloop
  endfacet
  facet normal 0 0 1
    outer loop
      vertex 6.5 10 10
      vertex 6.5 20 10
      vertex 5 20 10
    endloop
  endfacet
  facet normal 0 0 1
    outer loop
      vertex 36.5 3.5 10
      vertex 35 8.5 10
      vertex 35 3.5 10
    endloop
  endfacet
  facet normal 0 0 1
    outer loop
      vertex 36.5 20 10
      vertex 35 8.5 10
      vertex 36.5 3.5 10
    endloop
  endfacet
  facet normal 0 0 1
    outer loop
      vertex 36.5 20 10
      vertex 35 10 10
      vertex 35 8.5 10
    endloop
  endfacet
  facet normal 0 0 1
    outer loop
      vertex 36.5 20 10
      vertex 35 20 10
      vertex 35 10 10
    endloop
  endfacet
  facet normal 0 0 1
    outer loop
      vertex 35 8.5 10
      vertex 6.5 10 10
      vertex 6.5 8.5 10
    endloop
  endfacet
  facet normal 0 0 1
    outer loop
      vertex 35 10 10
      vertex 6.5 10 10
      vertex 35 8.5 10
    endloop
  endfacet
  facet normal 0.707107 0.707107 0
    outer loop
      vertex 40 1.5 11.5
      vertex 40 1.5 10
      vertex 38 3.5 11.5
    endloop
  endfacet
  facet normal 0.707107 0.707107 0
    outer loop
      vertex 38 3.5 11.5
      vertex 40 1.5 10
      vertex 38 3.5 10
    endloop
  endfacet
  facet normal 0 0 -1
    outer loop
      vertex 38 3.5 10
      vertex 40 1.5 10
      vertex 36.5 3.5 10
    endloop
  endfacet
  facet normal 0 0 -1
    outer loop
      vertex 36.5 3.5 10
      vertex 40 1.5 10
      vertex 36.5 1.5 10
    endloop
  endfacet
  facet normal 0 1 0
    outer loop
      vertex 36.5 1.5 0
      vertex 36.5 1.5 10
      vertex 40 1.5 0
    endloop
  endfacet
  facet normal 0 1 0
    outer loop
      vertex 40 1.5 0
      vertex 36.5 1.5 10
      vertex 40 1.5 10
    endloop
  endfacet
  facet normal 0 0 1
    outer loop
      vertex 40 1.5 0
      vertex 38 3.5 0
      vertex 36.5 3.5 0
    endloop
  endfacet
  facet normal 0 0 1
    outer loop
      vertex 36.5 1.5 0
      vertex 40 1.5 0
      vertex 36.5 3.5 0
    endloop
  endfacet
  facet normal 1 0 0
    outer loop
      vertex 36.5 1.5 10
      vertex 36.5 1.5 0
      vertex 36.5 3.5 0
    endloop
  endfacet
  facet normal 1 0 0
    outer loop
      vertex 36.5 11 -1.5
      vertex 36.5 1.5 10
      vertex 36.5 7.5 0
    endloop
  endfacet
  facet normal 1 0 0
    outer loop
      vertex 36.5 7.5 0
      vertex 36.5 1.5 10
      vertex 36.5 3.5 0
    endloop
  endfacet
  facet normal 1 0 0
    outer loop
      vertex 36.5 11 -1.5
      vertex 36.5 7.5 0
      vertex 36.5 7.5 -1.5
    endloop
  endfacet
  facet normal 1 0 0
    outer loop
      vertex 36.5 11 0
      vertex 36.5 1.5 10
      vertex 36.5 11 -1.5
    endloop
  endfacet
  facet normal 1 0 0
    outer loop
      vertex 36.5 20 0
      vertex 36.5 1.5 10
      vertex 36.5 11 0
    endloop
  endfacet
  facet normal 1 0 0
    outer loop
      vertex 36.5 15.4289 4.57107
      vertex 36.5 1.5 10
      vertex 36.5 20 0
    endloop
  endfacet
  facet normal 1 0 0
    outer loop
      vertex 36.5 20 9.14214
      vertex 36.5 1.5 10
      vertex 36.5 15.4289 4.57107
    endloop
  endfacet
  facet normal 1 0 0
    outer loop
      vertex 36.5 3.5 10
      vertex 36.5 1.5 10
      vertex 36.5 20 9.14214
    endloop
  endfacet
  facet normal 1 0 0
    outer loop
      vertex 36.5 20 10
      vertex 36.5 3.5 10
      vertex 36.5 20 9.14214
    endloop
  endfacet
  facet normal 0 0 -1
    outer loop
      vertex 35 3.5 0
      vertex 35 7.5 0
      vertex 36.5 3.5 0
    endloop
  endfacet
  facet normal 0 0 -1
    outer loop
      vertex 36.5 3.5 0
      vertex 35 7.5 0
      vertex 36.5 7.5 0
    endloop
  endfacet
  facet normal 0 0 1
    outer loop
      vertex 35 1.5 0
      vertex 35 3.5 0
      vertex 6.5 3.5 0
    endloop
  endfacet
  facet normal 0 0 1
    outer loop
      vertex 6.5 1.5 0
      vertex 35 1.5 0
      vertex 6.5 3.5 0
    endloop
  endfacet
  facet normal -1 0 0
    outer loop
      vertex 35 1.5 0
      vertex 35 1.5 10
      vertex 35 3.5 0
    endloop
  endfacet
  facet normal -1 0 0
    outer loop
      vertex 35 3.5 0
      vertex 35 1.5 10
      vertex 35 3.5 10
    endloop
  endfacet
  facet normal -1 0 0
    outer loop
      vertex 35 3.5 0
      vertex 35 3.5 10
      vertex 35 8.5 10
    endloop
  endfacet
  facet normal -1 0 0
    outer loop
      vertex 35 7.5 0
      vertex 35 8.5 10
      vertex 35 8.5 0
    endloop
  endfacet
  facet normal -1 0 0
    outer loop
      vertex 35 3.5 0
      vertex 35 8.5 10
      vertex 35 7.5 0
    endloop
  endfacet
  facet normal 1 0 0
    outer loop
      vertex 6.5 1.5 10
      vertex 6.5 1.5 0
      vertex 6.5 3.5 0
    endloop
  endfacet
  facet normal 1 0 0
    outer loop
      vertex 6.5 8.5 0
      vertex 6.5 1.5 10
      vertex 6.5 7.5 0
    endloop
  endfacet
  facet normal 1 0 0
    outer loop
      vertex 6.5 7.5 0
      vertex 6.5 1.5 10
      vertex 6.5 3.5 0
    endloop
  endfacet
  facet normal 1 0 0
    outer loop
      vertex 6.5 3.5 10
      vertex 6.5 1.5 10
      vertex 6.5 8.5 0
    endloop
  endfacet
  facet normal 1 0 0
    outer loop
      vertex 6.5 8.5 10
      vertex 6.5 3.5 10
      vertex 6.5 8.5 0
    endloop
  endfacet
  facet normal 0 -1 0
    outer loop
      vertex 5 7.5 0
      vertex 5 7.5 -1.5
      vertex 36.5 7.5 -1.5
    endloop
  endfacet
  facet normal 0 -1 0
    outer loop
      vertex 6.5 7.5 0
      vertex 5 7.5 0
      vertex 36.5 7.5 -1.5
    endloop
  endfacet
  facet normal 0 -1 0
    outer loop
      vertex 36.5 7.5 0
      vertex 35 7.5 0
      vertex 36.5 7.5 -1.5
    endloop
  endfacet
  facet normal 0 -1 0
    outer loop
      vertex 35 7.5 0
      vertex 6.5 7.5 0
      vertex 36.5 7.5 -1.5
    endloop
  endfacet
  facet normal 0 0 -1
    outer loop
      vertex 5 7.5 -1.5
      vertex 5 11 -1.5
      vertex 36.5 7.5 -1.5
    endloop
  endfacet
  facet normal 0 0 -1
    outer loop
      vertex 36.5 7.5 -1.5
      vertex 5 11 -1.5
      vertex 36.5 11 -1.5
    endloop
  endfacet
  facet normal 0 1 0
    outer loop
      vertex 5 11 -1.5
      vertex 5 11 0
      vertex 36.5 11 -1.5
    endloop
  endfacet
  facet normal 0 1 0
    outer loop
      vertex 36.5 11 -1.5
      vertex 5 11 0
      vertex 6.5 11 0
    endloop
  endfacet
  facet normal 0 1 0
    outer loop
      vertex 36.5 11 -1.5
      vertex 6.5 11 0
      vertex 35 11 0
    endloop
  endfacet
  facet normal 0 1 0
    outer loop
      vertex 36.5 11 -1.5
      vertex 35 11 0
      vertex 36.5 11 0
    endloop
  endfacet
  facet normal 0 0 -1
    outer loop
      vertex 5 11 0
      vertex 5 20 0
      vertex 6.5 11 0
    endloop
  endfacet
  facet normal 0 0 -1
    outer loop
      vertex 6.5 11 0
      vertex 5 20 0
      vertex 6.5 20 0
    endloop
  endfacet
  facet normal 0 0.707107 0.707107
    outer loop
      vertex 6.5 15.4289 4.57107
      vertex 6.5 20 0
      vertex 5 20 0
    endloop
  endfacet
  facet normal 0 0.707107 0.707107
    outer loop
      vertex 5 15.4289 4.57107
      vertex 6.5 15.4289 4.57107
      vertex 5 20 0
    endloop
  endfacet
  facet normal 0 0.707107 -0.707107
    outer loop
      vertex 6.5 20 9.14214
      vertex 6.5 15.4289 4.57107
      vertex 5 20 9.14214
    endloop
  endfacet
  facet normal 0 0.707107 -0.707107
    outer loop
      vertex 5 20 9.14214
      vertex 6.5 15.4289 4.57107
      vertex 5 15.4289 4.57107
    endloop
  endfacet
  facet normal 0 1 0
    outer loop
      vertex 5 20 9.14214
      vertex 5 20 10
      vertex 6.5 20 9.14214
    endloop
  endfacet
  facet normal 0 1 0
    outer loop
      vertex 6.5 20 9.14214
      vertex 5 20 10
      vertex 6.5 20 10
    endloop
  endfacet
  facet normal 0 0 1
    outer loop
      vertex 35 7.5 0
      vertex 35 8.5 0
      vertex 6.5 8.5 0
    endloop
  endfacet
  facet normal 0 0 1
    outer loop
      vertex 6.5 7.5 0
      vertex 35 7.5 0
      vertex 6.5 8.5 0
    endloop
  endfacet
  facet normal 0 0 -1
    outer loop
      vertex 35 3.5 10
      vertex 35 1.5 10
      vertex 6.5 3.5 10
    endloop
  endfacet
  facet normal 0 0 -1
    outer loop
      vertex 6.5 3.5 10
      vertex 35 1.5 10
      vertex 6.5 1.5 10
    endloop
  endfacet
  facet normal 1 0 0
    outer loop
      vertex 6.5 10 10
      vertex 6.5 10 0
      vertex 6.5 11 0
    endloop
  endfacet
  facet normal 1 0 0
    outer loop
      vertex 6.5 15.4289 4.57107
      vertex 6.5 10 10
      vertex 6.5 11 0
    endloop
  endfacet
  facet normal 1 0 0
    outer loop
      vertex 6.5 20 0
      vertex 6.5 15.4289 4.57107
      vertex 6.5 11 0
    endloop
  endfacet
  facet normal 1 0 0
    outer loop
      vertex 6.5 20 10
      vertex 6.5 10 10
      vertex 6.5 20 9.14214
    endloop
  endfacet
  facet normal 1 0 0
    outer loop
      vertex 6.5 15.4289 4.57107
      vertex 6.5 20 9.14214
      vertex 6.5 10 10
    endloop
  endfacet
  facet normal 0 1 0
    outer loop
      vertex 6.5 10 0
      vertex 6.5 10 10
      vertex 35 10 0
    endloop
  endfacet
  facet normal 0 1 0
    outer loop
      vertex 35 10 0
      vertex 6.5 10 10
      vertex 35 10 10
    endloop
  endfacet
  facet normal -1 0 0
    outer loop
      vertex 35 10 0
      vertex 35 10 10
      vertex 35 11 0
    endloop
  endfacet
  facet normal -1 0 0
    outer loop
      vertex 35 11 0
      vertex 35 10 10
      vertex 35 20 10
    endloop
  endfacet
  facet normal -1 0 0
    outer loop
      vertex 35 15.4289 4.57107
      vertex 35 20 10
      vertex 35 20 9.14214
    endloop
  endfacet
  facet normal -1 0 0
    outer loop
      vertex 35 11 0
      vertex 35 20 10
      vertex 35 15.4289 4.57107
    endloop
  endfacet
  facet normal -1 0 0
    outer loop
      vertex 35 20 0
      vertex 35 11 0
      vertex 35 15.4289 4.57107
    endloop
  endfacet
  facet normal 0 1 0
    outer loop
      vertex 35 20 9.14214
      vertex 35 20 10
      vertex 36.5 20 9.14214
    endloop
  endfacet
  facet normal 0 1 0
    outer loop
      vertex 36.5 20 9.14214
      vertex 35 20 10
      vertex 36.5 20 10
    endloop
  endfacet
  facet normal 0 -1 0
    outer loop
      vertex 6.5 8.5 10
      vertex 6.5 8.5 0
      vertex 35 8.5 0
    endloop
  endfacet
  facet normal 0 -1 0
    outer loop
      vertex 35 8.5 10
      vertex 6.5 8.5 10
      vertex 35 8.5 0
    endloop
  endfacet
  facet normal 0 0.707107 -0.707107
    outer loop
      vertex 36.5 20 9.14214
      vertex 36.5 15.4289 4.57107
      vertex 35 20 9.14214
    endloop
  endfacet
  facet normal 0 0.707107 -0.707107
    outer loop
      vertex 35 20 9.14214
      vertex 36.5 15.4289 4.57107
      vertex 35 15.4289 4.57107
    endloop
  endfacet
  facet normal 0 0.707107 0.707107
    outer loop
      vertex 36.5 15.4289 4.57107
      vertex 36.5 20 0
      vertex 35 20 0
    endloop
  endfacet
  facet normal 0 0.707107 0.707107
    outer loop
      vertex 35 15.4289 4.57107
      vertex 36.5 15.4289 4.57107
      vertex 35 20 0
    endloop
  endfacet
  facet normal 0 0 -1
    outer loop
      vertex 35 11 0
      vertex 35 20 0
      vertex 36.5 11 0
    endloop
  endfacet
  facet normal 0 0 -1
    outer loop
      vertex 36.5 11 0
      vertex 35 20 0
      vertex 36.5 20 0
    endloop
  endfacet
  facet normal 0 1 0
    outer loop
      vertex 6.5 1.5 0
      vertex 6.5 1.5 10
      vertex 35 1.5 0
    endloop
  endfacet
  facet normal 0 1 0
    outer loop
      vertex 35 1.5 0
      vertex 6.5 1.5 10
      vertex 35 1.5 10
    endloop
  endfacet
  facet normal 0 0 1
    outer loop
      vertex 35 10 0
      vertex 35 11 0
      vertex 6.5 11 0
    endloop
  endfacet
  facet normal 0 0 1
    outer loop
      vertex 6.5 10 0
      vertex 35 10 0
      vertex 6.5 11 0
    endloop
  endfacet
endsolid OpenSCAD_Model
